<svg width="360" height="699" viewBox="0 0 360 699" fill="none" xmlns="http://www.w3.org/2000/svg">
<rect width="360" height="699" fill="white"/>
<path d="M3.07968 155.396C3.33324 156.647 4.1704 157.703 5.33056 158.235L87.0806 195.757C87.239 195.83 87.4016 195.893 87.5633 195.942L86.4771 207.187C86.3655 208.35 86.7665 209.502 87.575 210.344L101.474 224.789C103.007 226.378 105.537 226.428 107.128 224.898C108.717 223.366 108.768 220.835 107.237 219.243L94.6132 206.124L100.697 143.129C101.662 143.221 102.66 142.906 103.391 142.16L115.788 129.52C116.548 128.745 116.884 127.65 116.686 126.582C116.488 125.515 115.785 124.611 114.8 124.158L112.001 122.874C114.621 121.739 116.852 119.686 118.134 116.89C120.893 110.878 118.246 103.743 112.236 100.985C106.227 98.2267 99.0923 100.872 96.334 106.884C95.0514 109.68 94.9493 112.711 95.798 115.437L72.0332 104.529C74.6541 103.395 76.8851 101.342 78.1678 98.5462C80.926 92.5344 78.2803 85.3998 72.2694 82.6409C66.2588 79.8821 59.1255 82.5283 56.3672 88.5401C55.0846 91.3356 54.9825 94.3664 55.831 97.0928L52.4268 95.5303C50.7545 94.7627 48.7771 95.4965 48.0097 97.1691C47.2423 98.8417 47.9759 100.819 49.6479 101.587L107.713 128.238L100.035 136.066C99.6831 135.682 99.262 135.358 98.7691 135.131L45.4802 110.673C43.9004 109.947 42.034 110.326 40.8629 111.609L4.04794 151.904C3.18539 152.847 2.82612 154.144 3.07968 155.396ZM109.457 107.042C112.129 108.268 113.305 111.438 112.079 114.111C110.852 116.783 107.683 117.959 105.011 116.733C102.339 115.506 101.164 112.336 102.39 109.664C103.616 106.991 106.785 105.816 109.457 107.042ZM69.4907 88.6979C72.1625 89.9242 73.3384 93.0945 72.1123 95.7668C70.8862 98.4391 67.7162 99.6151 65.0444 98.3887C62.3728 97.1625 61.1971 93.992 62.4232 91.3197C63.6493 88.6474 66.8191 87.4717 69.4907 88.6979ZM20.0159 146.278L38.5565 154.788L34.8049 162.965L13.6445 153.253L20.0159 146.278ZM32.9967 132.073L46.1984 138.132L41.8911 147.52L25.6805 140.08L32.9967 132.073ZM70.2197 149.158L65.9124 158.546L49.158 150.856L53.4653 141.468L70.2197 149.158ZM56.8003 134.199L60.4128 126.325L77.1672 134.015L73.5547 141.889L56.8003 134.199ZM90.1029 169.649L73.1785 161.881L77.4858 152.493L91.1535 158.766L90.1029 169.649ZM62.5777 165.814L58.8262 173.99L42.0718 166.3L45.8233 158.124L62.5777 165.814ZM66.0925 177.325L69.8441 169.149L89.2901 178.074L88.3746 187.553L66.0925 177.325ZM91.967 150.34L80.821 145.224L84.4336 137.35L92.8487 141.213L91.967 150.34ZM53.1461 122.99L49.5335 130.863L38.6595 125.872L44.7949 119.157L53.1461 122.99Z" fill="#F0F0F0"/>
<path d="M232.029 66.0876C233.278 65.8217 234.579 66.1692 235.53 67.0214L302.503 127.075C302.632 127.192 302.755 127.316 302.865 127.444L312.744 121.969C313.766 121.403 314.983 121.312 316.076 121.719L334.86 128.717C336.928 129.49 337.981 131.791 337.212 133.86C336.44 135.928 334.139 136.983 332.07 136.212L315.01 129.856L259.662 160.53C260.131 161.378 260.239 162.419 259.847 163.387L253.192 179.795C252.784 180.801 251.914 181.545 250.856 181.789C249.798 182.033 248.689 181.748 247.882 181.024L245.589 178.968C245.592 181.824 244.597 184.688 242.544 186.978C238.13 191.903 230.532 192.317 225.609 187.903C220.686 183.488 220.27 175.889 224.685 170.964C226.738 168.674 229.476 167.373 232.315 167.065L212.846 149.608C212.85 152.464 211.855 155.329 209.802 157.619C205.388 162.544 197.791 162.958 192.867 158.543C187.942 154.127 187.528 146.529 191.942 141.604C193.995 139.314 196.734 138.013 199.572 137.706L196.784 135.205C195.413 133.976 195.299 131.87 196.527 130.5C197.755 129.129 199.861 129.015 201.231 130.243L248.8 172.897L252.921 162.736C252.429 162.566 251.963 162.309 251.56 161.947L207.903 122.8C206.609 121.64 206.213 119.777 206.923 118.191L229.212 68.3667C229.734 67.1997 230.78 66.3534 232.029 66.0876ZM230.057 182.941C232.245 184.903 235.621 184.719 237.583 182.53C239.546 180.34 239.362 176.964 237.173 175.001C234.984 173.039 231.608 173.223 229.646 175.412C227.684 177.602 227.868 180.978 230.057 182.941ZM197.314 153.581C199.503 155.544 202.879 155.36 204.841 153.17C206.804 150.981 206.62 147.605 204.431 145.642C202.242 143.679 198.866 143.864 196.904 146.053C194.941 148.242 195.126 151.618 197.314 153.581ZM230.414 85.2567L245.603 98.8766L251.607 92.178L234.272 76.6336L230.414 85.2567ZM222.557 102.824L233.372 112.522L240.266 104.831L226.986 92.9225L222.557 102.824ZM253.051 130.168L259.945 122.477L246.219 110.169L239.325 117.86L253.051 130.168ZM233.988 123.815L228.206 130.265L241.932 142.573L247.714 136.123L233.988 123.815ZM279.763 140.247L265.898 127.815L259.004 135.506L270.201 145.546L279.763 140.247ZM265.282 116.523L271.286 109.824L257.561 97.5163L251.556 104.215L265.282 116.523ZM277.239 115.162L271.235 121.861L287.166 136.146L295.494 131.53L277.239 115.162ZM262.798 149.648L253.666 141.461L247.885 147.911L254.779 154.093L262.798 149.648ZM222.252 124.927L228.034 118.477L219.126 110.489L215.411 118.792L222.252 124.927Z" fill="#F0F0F0"/>
<path d="M187.923 262.849C189.154 263.188 190.15 264.096 190.602 265.29L222.437 349.43C222.498 349.593 222.55 349.76 222.588 349.925L233.879 349.61C235.047 349.578 236.168 350.057 236.952 350.922L250.41 365.779C251.89 367.417 251.767 369.945 250.132 371.428C248.496 372.909 245.967 372.786 244.484 371.15L232.262 357.656L169.01 359.417C169.036 360.386 168.653 361.361 167.859 362.039L154.403 373.545C153.578 374.25 152.463 374.51 151.411 374.239C150.36 373.969 149.507 373.206 149.123 372.191L148.033 369.311C146.722 371.848 144.521 373.933 141.645 375.022C135.459 377.363 128.523 374.234 126.183 368.048C123.843 361.863 126.97 354.925 133.155 352.584C136.032 351.495 139.062 351.601 141.723 352.634L132.469 328.175C131.158 330.712 128.957 332.798 126.081 333.887C119.896 336.228 112.96 333.1 110.62 326.913C108.279 320.726 111.406 313.79 117.592 311.449C120.468 310.36 123.498 310.465 126.159 311.499L124.834 307.995C124.183 306.274 125.05 304.351 126.771 303.699C128.492 303.048 130.414 303.915 131.065 305.636L153.676 365.399L162.01 358.273C161.651 357.896 161.356 357.454 161.164 356.946L140.413 302.099C139.798 300.473 140.304 298.637 141.663 297.556L184.374 263.577C185.374 262.781 186.693 262.511 187.923 262.849ZM132.415 365.69C133.455 368.44 136.537 369.83 139.286 368.789C142.036 367.748 143.426 364.666 142.385 361.916C141.345 359.166 138.263 357.776 135.514 358.817C132.764 359.858 131.374 362.94 132.415 365.69ZM116.851 324.555C117.892 327.304 120.974 328.695 123.723 327.654C126.472 326.613 127.862 323.531 126.822 320.781C125.782 318.031 122.699 316.641 119.95 317.682C117.201 318.722 115.811 321.805 116.851 324.555ZM177.671 279.125L184.891 298.208L193.303 295.024L185.063 273.245L177.671 279.125ZM162.613 291.106L167.754 304.694L177.413 301.038L171.1 284.354L162.613 291.106ZM177.108 329.418L186.767 325.762L180.243 308.518L170.584 312.174L177.108 329.418ZM163.105 315.004L155.005 318.07L161.529 335.315L169.63 332.248L163.105 315.004ZM196.187 350.66L189.597 333.241L179.938 336.897L185.26 350.964L196.187 350.66ZM194.245 322.932L202.658 319.748L196.133 302.503L187.721 305.688L194.245 322.932ZM205.487 327.227L197.075 330.411L204.647 350.425L214.164 350.16L205.487 327.227ZM176.8 351.199L172.46 339.727L164.359 342.793L167.635 351.455L176.8 351.199ZM152.174 310.591L160.275 307.525L156.041 296.333L148.922 301.996L152.174 310.591Z" fill="#F0F0F0"/>
<path d="M215.091 457.448C215.559 456.261 216.568 455.367 217.803 455.045L304.845 432.367C305.014 432.323 305.185 432.289 305.353 432.269L306.245 421.007C306.338 419.843 306.934 418.778 307.877 418.091L324.083 406.293C325.87 404.996 328.37 405.388 329.669 407.172C330.967 408.958 330.575 411.459 328.79 412.759L314.071 423.474L309.071 486.564C310.037 486.642 310.965 487.126 311.554 487.988L321.556 502.599C322.169 503.494 322.309 504.631 321.927 505.648C321.546 506.664 320.697 507.432 319.647 507.705L316.667 508.482C319.049 510.056 320.887 512.467 321.663 515.444C323.33 521.845 319.479 528.409 313.08 530.076C306.681 531.743 300.118 527.892 298.451 521.492C297.676 518.515 298.104 515.513 299.415 512.976L274.112 519.569C276.495 521.143 278.334 523.555 279.109 526.531C280.776 532.932 276.926 539.495 270.526 541.163C264.126 542.83 257.564 538.98 255.897 532.579C255.122 529.602 255.55 526.6 256.861 524.064L253.237 525.008C251.456 525.472 249.637 524.404 249.173 522.623C248.709 520.842 249.777 519.023 251.557 518.559L313.38 502.452L307.186 493.404C306.773 493.72 306.302 493.966 305.777 494.103L249.038 508.886C247.356 509.324 245.585 508.625 244.655 507.158L215.435 461.056C214.751 459.976 214.623 458.636 215.091 457.448ZM311.4 523.627C314.245 522.886 315.956 519.969 315.215 517.124C314.474 514.279 311.558 512.567 308.713 513.309C305.868 514.05 304.158 516.966 304.899 519.812C305.64 522.657 308.556 524.368 311.4 523.627ZM268.847 534.714C271.691 533.973 273.402 531.056 272.661 528.211C271.92 525.366 269.004 523.654 266.159 524.396C263.315 525.137 261.604 528.053 262.345 530.899C263.086 533.744 266.002 535.455 268.847 534.714ZM230.177 469.382L249.918 464.238L247.65 455.532L225.12 461.403L230.177 469.382ZM240.48 485.635L254.536 481.973L251.933 471.977L234.673 476.474L240.48 485.635ZM280.113 475.309L277.509 465.313L259.67 469.961L262.274 479.957L280.113 475.309ZM264.289 487.696L266.473 496.079L284.312 491.432L282.128 483.048L264.289 487.696ZM303.266 458.602L285.246 463.297L287.849 473.293L302.402 469.502L303.266 458.602ZM275.494 457.575L273.227 448.869L255.388 453.517L257.655 462.223L275.494 457.575ZM280.963 446.853L283.231 455.559L303.936 450.164L304.688 440.672L280.963 446.853ZM301.733 477.94L289.865 481.032L292.049 489.416L301.008 487.081L301.733 477.94ZM258.736 498.096L256.552 489.712L244.974 492.729L249.844 500.412L258.736 498.096Z" fill="#F0F0F0"/>
<path d="M128.514 515.557C127.732 515.28 126.863 515.393 126.177 515.862L77.8902 548.901C77.7967 548.965 77.7071 549.035 77.6255 549.108L71.7194 544.738C71.1081 544.287 70.3315 544.125 69.5916 544.294L56.8848 547.211C55.4854 547.534 54.6108 548.929 54.9314 550.328C55.2533 551.728 56.6479 552.603 58.0476 552.282L69.5883 549.632L102.677 574.113C102.302 574.621 102.144 575.283 102.315 575.94L105.213 587.087C105.391 587.77 105.889 588.324 106.551 588.571C107.212 588.818 107.951 588.728 108.534 588.33L110.187 587.199C109.942 589.04 110.341 590.972 111.47 592.623C113.899 596.174 118.763 597.086 122.313 594.657C125.862 592.229 126.775 587.363 124.347 583.812C123.217 582.161 121.561 581.09 119.757 580.65L133.794 571.046C133.549 572.888 133.947 574.819 135.077 576.471C137.506 580.022 142.369 580.934 145.92 578.505C149.47 576.076 150.382 571.211 147.954 567.66C146.824 566.009 145.169 564.937 143.364 564.498L145.375 563.122C146.363 562.446 146.616 561.098 145.94 560.11C145.264 559.122 143.916 558.869 142.928 559.545L108.631 583.011L106.837 576.108C107.168 576.04 107.49 575.914 107.781 575.715L139.257 554.179C140.191 553.54 140.604 552.372 140.281 551.29L130.137 517.266C129.9 516.469 129.297 515.835 128.514 515.557ZM119.866 591.08C118.288 592.16 116.126 591.754 115.047 590.176C113.967 588.597 114.373 586.435 115.951 585.356C117.529 584.276 119.69 584.681 120.77 586.26C121.849 587.838 121.444 590 119.866 591.08ZM143.473 574.927C141.895 576.007 139.733 575.602 138.654 574.023C137.574 572.445 137.979 570.283 139.558 569.203C141.136 568.124 143.297 568.529 144.377 570.108C145.456 571.686 145.051 573.848 143.473 574.927ZM127.928 528.056L116.977 535.549L113.674 530.719L126.173 522.167L127.928 528.056ZM131.504 540.052L123.706 545.387L119.913 539.842L129.488 533.291L131.504 540.052ZM109.517 555.095L105.725 549.55L115.621 542.779L119.414 548.324L109.517 555.095ZM122.35 552.617L125.531 557.268L115.635 564.039L112.454 559.389L122.35 552.617ZM91.4362 559.327L101.433 552.487L105.226 558.032L97.1525 563.556L91.4362 559.327ZM102.789 545.257L99.4852 540.427L109.382 533.656L112.685 538.486L102.789 545.257ZM95.1932 543.364L98.4966 548.194L87.0104 556.053L82.032 552.369L95.1932 543.364ZM101.578 566.83L108.162 562.325L111.343 566.976L106.372 570.377L101.578 566.83ZM129.824 554.331L126.643 549.681L133.066 545.286L134.756 550.956L129.824 554.331Z" fill="#F0F0F0"/>
<path d="M359.976 615.705C359.863 614.882 359.363 614.162 358.632 613.768L307.119 586.03C307.019 585.976 306.916 585.928 306.813 585.89L307.983 578.636C308.104 577.885 307.891 577.121 307.401 576.541L298.976 566.589C298.047 565.494 296.407 565.357 295.311 566.285C294.216 567.213 294.078 568.854 295.006 569.95L302.658 578.989L296.103 619.628C295.481 619.529 294.82 619.692 294.315 620.146L285.744 627.838C285.219 628.31 284.956 629.006 285.04 629.708C285.124 630.409 285.543 631.025 286.164 631.359L287.928 632.309C286.18 632.937 284.647 634.178 283.699 635.939C281.66 639.727 283.083 644.468 286.87 646.508C290.657 648.547 295.397 647.124 297.436 643.336C298.384 641.575 298.576 639.612 298.138 637.807L313.113 645.87C311.365 646.498 309.832 647.739 308.883 649.5C306.844 653.288 308.267 658.029 312.054 660.069C315.842 662.108 320.582 660.686 322.621 656.897C323.569 655.136 323.761 653.173 323.323 651.368L325.468 652.523C326.521 653.09 327.835 652.696 328.403 651.642C328.97 650.588 328.576 649.274 327.522 648.706L290.933 629.004L296.241 624.241C296.453 624.504 296.713 624.732 297.024 624.9L330.603 642.981C331.599 643.517 332.826 643.348 333.639 642.564L359.203 617.932C359.802 617.355 360.089 616.528 359.976 615.705ZM288.924 642.691C287.241 641.784 286.609 639.678 287.515 637.994C288.421 636.31 290.528 635.678 292.211 636.584C293.895 637.491 294.527 639.597 293.62 641.281C292.714 642.965 290.608 643.597 288.924 642.691ZM314.109 656.252C312.425 655.345 311.793 653.239 312.699 651.555C313.606 649.871 315.712 649.239 317.396 650.145C319.079 651.052 319.711 653.159 318.805 654.843C317.898 656.526 315.792 657.159 314.109 656.252ZM348.605 620.922L336.922 614.631L339.695 609.479L353.029 616.659L348.605 620.922ZM339.592 629.606L331.273 625.127L334.457 619.211L344.672 624.712L339.592 629.606ZM316.136 616.976L319.32 611.06L329.878 616.745L326.694 622.661L316.136 616.976ZM324.228 627.241L321.557 632.203L311 626.518L313.671 621.556L324.228 627.241ZM304.077 602.852L314.742 608.595L311.557 614.511L302.945 609.873L304.077 602.852ZM321.785 606.481L324.559 601.328L335.116 607.013L332.343 612.166L321.785 606.481ZM319.98 598.863L317.207 604.015L304.953 597.417L305.939 591.302L319.98 598.863ZM302.068 615.309L309.092 619.091L306.421 624.052L301.118 621.197L302.068 615.309ZM326.136 634.669L328.807 629.707L335.659 633.397L331.399 637.503L326.136 634.669Z" fill="#F0F0F0"/>
</svg>
