<svg xmlns="http://www.w3.org/2000/svg" xmlns:xlink="http://www.w3.org/1999/xlink" width="726.044" height="129.423" viewBox="0 0 726.044 129.423"><defs><path d="M50.527 69.977v-25.29a23.851 23.851 0 0 0-15.408-5.34c-9.925-.437-18.326 7.263-18.763 17.197-.012.3-.019.597-.016.895 0 10.68 8.003 17.985 18.779 17.985a23.476 23.476 0 0 0 15.43-5.427zM66.767 1.52v87.573h-16.24v-3.824a36.849 36.849 0 0 1-18.31 4.87C14.717 90.14.335 76.919.335 57.526c0-19.736 14.383-32.617 31.882-32.617a38.049 38.049 0 0 1 18.31 4.763V1.521zm8.28 87.51V26.02H91.16V89.03zm-1.28-79.266C73.731 4.582 77.873.34 83.05.259c5.15.093 9.25 4.348 9.156 9.502v.003c.082 5.108-3.988 9.316-9.09 9.398h-.066c-5.15-.023-9.305-4.221-9.283-9.376zm57.769 63.011a24.039 24.039 0 0 0 15.537-5.107V44.452a24.273 24.273 0 0 0-15.537-5.105c-10.776 0-18.78 7.198-18.78 16.703-.02 9.997 7.959 16.725 18.76 16.725zm31.649-46.756v50.943c0 16.253-9.05 34.005-32.929 34.005-15.535 0-18.545-1.39-28.298-4.274l3.137-11.961a72.998 72.998 0 0 0 21.341 3.717c9.623 0 19.485-5.808 19.932-15.656a36.74 36.74 0 0 1-17.627 4.4c-17.627 0-31.883-12.645-31.883-31.336 0-18.69 14.256-31.098 31.883-31.098a37.094 37.094 0 0 1 18.31 4.763v-3.59h16.111zm8.43 63.011V26.02h16.112V89.03zm-1.281-79.266c-.036-5.182 4.108-9.423 9.283-9.505 5.15.093 9.249 4.348 9.156 9.502l-.002.003c.095 5.095-3.954 9.302-9.045 9.398h-.109c-5.152-.023-9.308-4.221-9.283-9.376zm28.49 62.2a50.144 50.144 0 0 0 21.574 5.104c7.428 0 10.309-2.777 10.309-6.024 0-3.588-3.585-5.232-13.34-7.305-13.572-3.01-23.475-7.434-23.475-19.606 0-11.365 9.392-19.225 24.009-19.225a63.171 63.171 0 0 1 24.584 5.104l-5.333 11.834a58.557 58.557 0 0 0-19.592-4.057c-6.145 0-9.283 2.134-9.283 5.574 0 3.438 3.82 5.104 13.914 7.198 14.618 3.01 23.071 8.117 23.071 19.607 0 11.963-9.156 19.845-25.27 19.845a55.323 55.323 0 0 1-27.252-6.045zm72.344-32.617v22.279c0 11.255 1.856 14.502 9.966 14.502a66.652 66.652 0 0 0 7.427-.576V87.62a39.523 39.523 0 0 1-14.618 2.327c-10.545 0-19.015-6.62-19.015-19.843V39.347h-8.92v-13.35h8.92V1.52h16.24v24.479h17.63v13.349zm71.427 18.113c.332-10.259-7.71-18.842-17.96-19.171-10.25-.33-18.825 7.718-19.154 17.976-.329 10.257 7.711 18.84 17.96 19.171.203.004.405.01.609.01 10.1.178 18.43-7.87 18.609-17.98v-.006zm15.878 0c0 17.985-15.43 32.49-34.423 32.49-18.993 0-34.442-14.505-34.442-32.49 0-17.984 15.426-32.615 34.442-32.615 19.015 0 34.423 14.502 34.423 32.615zm19.42-22.62a23.889 23.889 0 0 1 19.825-9.975c1.346.016 2.68.255 3.948.704v17.516a46.06 46.06 0 0 0-7.768-.94c-11.588 0-16.005 8.246-16.005 16.468v30.395h-16.24V25.996h16.24v8.824zm41.699 16.939h31.18c-.577-7.198-4.397-14.035-15.196-14.035-8.024.154-14.766 6.087-15.941 14.035zm-.107 10.315c1.665 8.503 9.324 14.484 17.97 14.035a20.16 20.16 0 0 0 16.238-7.775l10.308 8.544c-5.803 7.882-16.111 13.009-28.402 13.009-19.015 0-32.225-14.505-32.225-32.49 0-17.984 13.21-32.615 32.225-32.615 19.355 0 30.6 14.032 30.6 33.64 0 1.284-.106 2.562-.106 3.588h-46.608zm73.412 14.824v.023h24.329V89.97h-48.444V78.564l.255-.193c25.975-19.245 33.014-25.483 33.014-32.787a6.699 6.699 0 0 0-2.879-5.638 11.453 11.453 0 0 0-6.658-1.923 22.387 22.387 0 0 0-9.285 1.923 23.024 23.024 0 0 0-7.149 5.147l-.47.49-8.536-9.804.363-.404a29.203 29.203 0 0 1 11.354-7.967 36.052 36.052 0 0 1 13.337-2.543 27.968 27.968 0 0 1 17.416 5.467 18.993 18.993 0 0 1 5.29 6.537 19.606 19.606 0 0 1 1.942 8.715 20.482 20.482 0 0 1-1.685 8.095 31.935 31.935 0 0 1-4.93 7.86 97.659 97.659 0 0 1-17.264 15.38zm39.16-13.03h15.195V40.394zm29.877 0h8.11v13.03h-8.11v13.008h-14.64V76.918h-30.069V65.555l25.14-39.538h19.57z" id="a"/><linearGradient x1="0" y1="128.567" x2="114.589" y2="8.521" id="c" gradientTransform="scale(.9917 1.00837)" gradientUnits="userSpaceOnUse"><stop stop-color="#3146A0" offset="0%"/><stop stop-color="#0288D1" offset="100%"/></linearGradient><path d="M105.558.22c-3.666.02-7.328.99-10.606 2.901L46.739 30.988l-14.532-8.406c-10.264-5.94-23.394-2.426-29.325 7.846A21.488 21.488 0 0 0 0 41.208v67.063c.036 11.774 9.559 21.327 21.34 21.373h.116a21.443 21.443 0 0 0 10.75-2.915l48.207-27.867 9.657-5.591 1.024-.62c9.919-6.496 12.701-19.81 6.214-29.742a21.44 21.44 0 0 0-7.238-6.848L57.462 37.219l42.88-24.687c5.057-3.019 11.596-1.36 14.611 3.702a10.651 10.651 0 0 1 1.503 5.6v66.914c.077 5.89-4.632 10.73-10.515 10.806a10.637 10.637 0 0 1-5.599-1.504l-2.28-1.322-10.655 6.187 7.672 4.439c10.263 5.938 23.388 2.425 29.325-7.85a21.51 21.51 0 0 0 2.88-10.756v-67A21.341 21.341 0 0 0 116.411 3.12a21.276 21.276 0 0 0-10.607-2.9zm-94.773 107.9V41.21c-.077-5.893 4.63-10.73 10.515-10.806a10.63 10.63 0 0 1 5.598 1.502L84.784 65.36a10.667 10.667 0 0 1 5.329 9.304h-.043a10.676 10.676 0 0 1-5.37 9.304l-4.264 2.495-37.98-21.954c-5.113-2.917-6.899-9.431-3.985-14.553a10.73 10.73 0 0 1 1.853-2.39l-9.484-5.485c-7.19 9.479-5.344 23 4.122 30.197a21.825 21.825 0 0 0 2.272 1.51l32.61 18.842-42.946 24.794a10.648 10.648 0 0 1-14.611-3.7 10.673 10.673 0 0 1-1.502-5.604z" id="b"/></defs><g fill="none" fill-rule="evenodd"><use xlink:href="#a" width="100%" height="100%" fill="#3a4959" transform="translate(156 17.78)"/><use xlink:href="#b" width="100%" height="100%" fill="url(#c)" transform="translate(0 -.22)"/></g></svg>