<svg xmlns="http://www.w3.org/2000/svg" viewBox="0 0 193 26"><path d="M68 7.3c3.1 0 5.6 2.5 5.6 5.6s-2.5 5.6-5.6 5.6-5.6-2.5-5.6-5.6 2.5-5.6 5.6-5.6m0-.5c-3.4 0-6.1 2.7-6.1 6.1S64.6 19 68 19s6.1-2.7 6.1-6.1-2.7-6.1-6.1-6.1z"/><path d="M60.1 7.3c3.1 0 5.6 2.5 5.6 5.6s-2.5 5.6-5.6 5.6-5.6-2.5-5.6-5.6 2.5-5.6 5.6-5.6m0-.5c-3.4 0-6.1 2.7-6.1 6.1s2.7 6.1 6.1 6.1 6.1-2.7 6.1-6.1-2.7-6.1-6.1-6.1zm15.8.5c3.1 0 5.6 2.5 5.6 5.6s-2.5 5.6-5.6 5.6-5.6-2.5-5.6-5.6 2.4-5.6 5.6-5.6m0-.5c-3.4 0-6.1 2.7-6.1 6.1s2.7 6.1 6.1 6.1 6.1-2.7 6.1-6.1-2.7-6.1-6.1-6.1zM0 12.6h54v.5H0zm82 0h111v.5H82z"/></svg>